<svg xmlns="http://www.w3.org/2000/svg" viewBox="0 0 32.14 72.86"><defs><style>.cls-1{isolation:isolate;}.cls-2{fill:#3b3c3d;}.cls-3{fill:#323334;}.cls-4{fill:#2a2b2c;}.cls-5{fill:#1a1a19;}.cls-6{fill:#3d3e40;opacity:0.46;mix-blend-mode:multiply;}</style></defs><g class="cls-1"><g id="레이어_1" data-name="레이어 1"><polygon class="cls-2" points="30.43 0.47 30.72 4.39 1.42 4.39 1.68 0.47 30.43 0.47"/><path class="cls-3" d="M64.47,88.44l-11.06.49L48.4,34l-5,54.9-11.06-.49L32.44,31c0-.17,0-.35,0-.52,0-.47,0-.92,0-1.34a45,45,0,0,1,1.28-8.79h29.3a45.15,45.15,0,0,1,1.28,8.8c0,.42,0,.87,0,1.35,0,.16,0,.33,0,.5Z" transform="translate(-32.33 -16.07)"/><rect class="cls-4" x="8.65" width="1.71" height="4.56"/><rect class="cls-4" x="20.39" width="1.71" height="4.56"/><rect class="cls-4" x="28.57" width="1.23" height="4.56"/><rect class="cls-4" x="2.4" width="1.23" height="4.56"/><polygon class="cls-5" points="8.59 14.98 8.58 15.33 6.32 72.36 5.74 72.33 5.06 72.3 8.59 14.98"/><polygon class="cls-5" points="23.83 14.98 23.84 15.33 26.11 72.36 26.69 72.33 27.36 72.3 23.83 14.98"/><path class="cls-5" d="M63.93,30.46A9.4,9.4,0,0,1,57.87,24a10.07,10.07,0,0,0,6,5.07Q63.93,29.74,63.93,30.46Z" transform="translate(-32.33 -16.07)"/><path class="cls-5" d="M39,24a9.37,9.37,0,0,1-6,6.4c0-.47,0-.92,0-1.34A10,10,0,0,0,39,24Z" transform="translate(-32.33 -16.07)"/><path class="cls-6" d="M48.4,16.54V34l-5,54.9-11.07-.49L32.44,31c0-.17,0-.34,0-.52,0-.47,0-.92,0-1.34a45.11,45.11,0,0,1,1.27-8.79h0L34,16.54h.72v-.47H36v.47h5v-.47h1.71v.47Z" transform="translate(-32.33 -16.07)"/></g></g></svg>