<?xml version="1.0" encoding="utf-8"?>
<!-- Generator: Adobe Illustrator 24.3.0, SVG Export Plug-In . SVG Version: 6.00 Build 0)  -->
<svg version="1.1" id="레이어_1" xmlns="http://www.w3.org/2000/svg" xmlns:xlink="http://www.w3.org/1999/xlink" x="0px"
	 y="0px" viewBox="0 0 100 100" style="enable-background:new 0 0 100 100;" xml:space="preserve">
<style type="text/css">
	.st0{fill:#C39277;}
	.st1{fill:#96705B;}
	.st2{fill:#795B4A;}
	.st3{fill:#D5C7BC;}
</style>
<g>
	<path class="st0" d="M64.76,29.75c-1.7,7.8-3.61,13.12-3.55,16.78c0.04,2.54,4.2,11.63,4.2,20.77c0,5.33-1.49,18.78-1.76,20.73
		H35.69c-0.27-1.96-1.75-15.4-1.75-20.73c0-9.14,3.99-18.23,4.03-20.77c0.06-3.66-1.68-8.98-3.38-16.77
		c-0.65-2.94-1.15-5.62-1.33-7.61c0-2.03-0.61-3.95,0.14-6.32c0.27-0.84,0.68-1.38,1.16-1.76c0.48-0.36,1.01-0.56,1.51-0.71
		c1.29-0.44,2.62-0.68,3.95-1.02c0.36-0.09,0.72-0.19,1.09-0.3l1.7-0.42c-0.05,0.55-0.07,1.1-0.07,1.67
		c0,6.47,3.11,11.72,6.94,11.72c3.83,0,6.94-5.25,6.94-11.72c0-0.57-0.03-1.14-0.07-1.69l1.7,0.44c0.37,0.11,0.73,0.21,1.09,0.3
		c1.33,0.34,2.66,0.58,3.94,1.02c0.49,0.15,1.01,0.34,1.48,0.68c0.5,0.37,0.93,0.92,1.2,1.79c0.75,2.37,0.14,4.29,0.14,6.32
		C65.91,24.15,65.4,26.82,64.76,29.75z"/>
	<path class="st1" d="M34.6,29.77c-0.77-0.04-1.56-0.5-2.4-0.17c-0.63,0.23-0.52,0.9-1.36,1.01c-0.42,0-0.73-0.56-1.15-0.56
		c-0.83-0.23-1.77,0.34-2.61,0.11c-0.97-0.21-1.4-1.3-0.45-1.72c-1.66-5.95,1.47-15.75,7.93-14.37c-0.48,0.37-0.89,0.92-1.16,1.76
		c-0.75,2.37-0.13,4.29-0.13,6.32C33.44,24.15,33.95,26.83,34.6,29.77z"/>
	<path class="st1" d="M72.09,30.16c-0.83,0.23-1.77-0.34-2.61-0.11c-0.42,0-0.73,0.56-1.15,0.56c-0.83-0.11-0.73-0.79-1.36-1.01
		c-0.78-0.31-1.5,0.06-2.22,0.15c0.64-2.93,1.15-5.61,1.32-7.6c0-2.03,0.61-3.95-0.13-6.32c-0.27-0.86-0.7-1.41-1.2-1.79
		c6.36-1.22,9.43,8.48,7.78,14.4C73.49,28.87,73.06,29.95,72.09,30.16z"/>
	<path class="st1" d="M59.95,18.03c0,9.08-4.6,16.45-10.28,16.45c-5.68,0-10.28-7.37-10.28-16.45c0-2,0.22-3.91,0.63-5.68
		c0.36-0.09,0.72-0.19,1.09-0.3c-0.2,1.18-0.3,2.42-0.3,3.7c0,7.84,3.97,14.2,8.87,14.2c4.9,0,8.87-6.36,8.87-14.2
		c0-1.28-0.1-2.52-0.3-3.7c0.36,0.11,0.73,0.21,1.08,0.3C59.73,14.12,59.95,16.03,59.95,18.03z"/>
	<path class="st2" d="M56.61,13.29c0,6.47-3.11,11.72-6.94,11.72c-3.83,0-6.94-5.25-6.94-11.72c0-0.57,0.03-1.12,0.07-1.67h0
		l13.73-0.02C56.59,12.15,56.61,12.72,56.61,13.29z"/>
	<path class="st1" d="M56.05,17.94c-1.06,4.16-3.52,7.08-6.37,7.08c-2.85,0-5.3-2.91-6.37-7.07c1.4-2.4,3.73-3.98,6.37-3.98
		C52.32,13.96,54.65,15.53,56.05,17.94z"/>
	<path class="st3" d="M49.68,29.94v58.1H35.69c-0.27-1.96-1.75-15.4-1.75-20.73c0-9.14,3.99-18.23,4.03-20.77
		c0.06-3.66-1.68-8.98-3.38-16.77c-0.78-0.04-1.56-0.5-2.4-0.17c-0.63,0.23-0.52,0.9-1.36,1.01c-0.41,0-0.73-0.56-1.15-0.56
		c-0.84-0.23-1.78,0.34-2.61,0.11c-0.97-0.21-1.4-1.3-0.45-1.72c-1.66-5.95,1.46-15.75,7.92-14.37c0.48-0.36,1.01-0.56,1.51-0.71
		c1.28-0.44,2.62-0.68,3.95-1.02c0.36-0.09,0.72-0.19,1.09-0.3c-0.2,1.18-0.31,2.42-0.31,3.7C40.8,23.58,44.78,29.94,49.68,29.94z"
		/>
	<path class="st3" d="M49.68,11.62v13.4c-0.1,0-0.21,0-0.31-0.01h-0.01c-0.04,0-0.07,0-0.1-0.01c-0.04,0-0.07,0-0.11-0.01
		c-0.09-0.01-0.18-0.02-0.26-0.04c-0.09-0.02-0.18-0.04-0.27-0.06c-0.04-0.01-0.08-0.02-0.12-0.04c-0.03,0-0.06-0.01-0.09-0.03
		c-0.05-0.01-0.11-0.03-0.16-0.05c-0.03-0.01-0.06-0.02-0.09-0.03c-0.01,0-0.03-0.01-0.05-0.02c-0.03-0.01-0.05-0.02-0.08-0.03
		c-0.01,0-0.03-0.01-0.05-0.02c-0.02-0.01-0.04-0.01-0.06-0.03c-0.02,0-0.04-0.01-0.05-0.02c-0.08-0.04-0.16-0.07-0.24-0.12
		c0,0-0.01,0-0.01-0.01c-0.02-0.01-0.04-0.02-0.06-0.03c-0.04-0.02-0.09-0.05-0.13-0.07c-0.04-0.01-0.07-0.04-0.1-0.06
		c0,0-0.01,0-0.02-0.01c-0.03-0.02-0.06-0.04-0.09-0.06c-0.04-0.02-0.08-0.05-0.12-0.08c-0.06-0.05-0.12-0.09-0.18-0.13
		c-0.08-0.06-0.15-0.12-0.23-0.18c-0.08-0.06-0.15-0.13-0.23-0.19c-0.03-0.03-0.06-0.05-0.09-0.08c-0.02-0.02-0.04-0.03-0.05-0.05
		c-0.11-0.1-0.21-0.21-0.32-0.32c-0.04-0.04-0.08-0.08-0.11-0.12c-0.16-0.17-0.31-0.36-0.46-0.55c-0.03-0.04-0.05-0.07-0.08-0.1
		c-0.05-0.07-0.11-0.14-0.16-0.22c-0.02-0.04-0.05-0.07-0.07-0.11c-0.06-0.09-0.12-0.18-0.18-0.27c-0.05-0.07-0.1-0.14-0.14-0.22
		c-0.04-0.07-0.09-0.14-0.13-0.22c-0.09-0.15-0.17-0.31-0.25-0.46c-0.05-0.09-0.1-0.19-0.14-0.29c-0.11-0.24-0.23-0.48-0.33-0.74
		c-0.02-0.05-0.04-0.09-0.05-0.14c-0.09-0.21-0.16-0.43-0.24-0.65c-0.02-0.06-0.05-0.12-0.06-0.18c-0.11-0.33-0.21-0.67-0.3-1.02
		c-0.01-0.03-0.01-0.06-0.02-0.09c-0.09-0.35-0.16-0.71-0.24-1.08c-0.03-0.17-0.06-0.33-0.09-0.51c-0.08-0.52-0.14-1.06-0.18-1.61
		c-0.01-0.13-0.02-0.26-0.02-0.39c-0.01-0.14-0.01-0.28-0.02-0.42c0-0.18-0.01-0.37-0.01-0.56c0-0.57,0.03-1.12,0.07-1.67h0
		L49.68,11.62z"/>
</g>
</svg>
