<?xml version="1.0" encoding="utf-8"?>
<!-- Generator: Adobe Illustrator 24.3.0, SVG Export Plug-In . SVG Version: 6.00 Build 0)  -->
<svg version="1.1" id="레이어_1" xmlns="http://www.w3.org/2000/svg" xmlns:xlink="http://www.w3.org/1999/xlink" x="0px"
	 y="0px" viewBox="0 0 100 100" style="enable-background:new 0 0 100 100;" xml:space="preserve">
<style type="text/css">
	.st0{fill:#FDD2BC;}
	.st1{fill:#836D62;}
	.st2{fill:#584942;}
	.st3{fill:#E4BDA9;}
	.st4{fill:#7F695E;}
	.st5{fill:#FDCAAD;}
	.st6{fill:#413631;}
	.st7{fill:#493D36;}
	.st8{fill:#6F5C52;}
	.st9{fill:#DFC8B6;}
</style>
<g>
	<path class="st0" d="M50,33.6v39.3h-0.02c0,1.33-1.02,2.42-2.32,2.51c-0.19,0-0.38-0.02-0.58-0.02c-4.06-0.21-9.59-1.48-13.11-4.05
		c1.86-7.09,4.05-17.57,0.87-25.46c-0.72,3.42-0.97,7.78-1.32,9.28c-0.75,2.76-1.96,5.33-2.25,8.11c-0.48,4.43-1.88,11.14-4.8,11.6
		c-0.25,0.04-0.52,0.03-0.8-0.03c-2.27-0.51-5.39-0.3-6.7-2.01c-0.48-0.62-0.72-1.49-0.6-2.73c0.3-3.73,3.2-13.67,4.11-17.48
		c1.08-4.53,2.07-7.17,3.37-11.07c0.56-1.7,1.06-3.57,1.5-5.36c0.53-1.7,2.04-6.04,3.02-8.19c0-0.01,0-0.01,0.01-0.01
		c0.22-0.66,0.59-1.24,1.07-1.72c0.39-0.39,0.85-0.71,1.36-0.93l1.01-0.31l6.77-2.08l1.13-0.35l2.08-0.64l0.01,0
		c-0.01,0.15-0.03,0.3-0.04,0.44v0.03c0,0.01,0,0.02,0,0.03c0,0.12,0,0.23,0,0.35c-0.01,0.05-0.01,0.11-0.01,0.17
		c0,3.85,1.81,7.12,4.31,8.25c0.06,0.03,0.12,0.05,0.18,0.08c0.01,0,0.02,0.01,0.03,0.01L50,33.6z"/>
	<path class="st1" d="M26.47,74.86l-0.81,3.51l-7.57-1.74l0.88-3.81c1.31,1.71,4.43,1.5,6.7,2.01
		C25.95,74.89,26.21,74.9,26.47,74.86z"/>
	<path class="st0" d="M81.16,73.39c-1.37,1.56-4.37,1.37-6.58,1.86c-0.33,0.07-0.65,0.07-0.95,0c-2.81-0.65-4.17-7.21-4.64-11.57
		c-0.3-2.78-1.5-5.35-2.25-8.1c-0.32-1.36-0.55-5.09-1.13-8.32c-2.43,7.73-1.2,17.4,0.45,24.07c-3.49,2.55-9.02,3.83-13.07,4.05
		c-0.23,0.02-0.47,0.02-0.69,0.03c0,0,0,0-0.01,0c-1.26-0.13-2.25-1.21-2.25-2.51H50V33.6l1.71-2.28h0c0.01,0,0.02-0.01,0.04-0.01
		c0.06-0.02,0.12-0.05,0.18-0.08c0,0,0,0,0.01,0c2.38-1.07,4.12-4.09,4.28-7.69c0-0.09,0.01-0.17,0.01-0.26c0-0.1,0-0.19,0-0.29
		c0-0.06,0-0.13,0-0.18c0-0.3-0.01-0.58-0.04-0.87l0.01,0l2.07,0.64l1.13,0.35l6.71,2.09l1.18,0.36c0.47,0.22,0.9,0.52,1.26,0.89
		c0.44,0.43,0.78,0.95,1.01,1.53c0,0,0,0,0,0c0.97,1.96,2.77,6.98,3.34,8.81c0.45,1.78,1.22,3.53,1.75,5.24
		c1.23,3.94,2.56,7.03,3.22,10.94c0.65,3.86,3.7,13.99,4,17.72C82.01,71.86,81.72,72.77,81.16,73.39z"/>
	<path class="st1" d="M81.91,76.63l-7.56,1.74l-0.72-3.12c0.3,0.07,0.62,0.07,0.95,0c2.21-0.49,5.21-0.3,6.58-1.86L81.91,76.63z"/>
	<path class="st2" d="M56.24,22.79C56.24,22.79,56.24,22.79,56.24,22.79c-4.39,1.23-8.37,1.21-12.48,0.02c0-0.07,0-0.13,0-0.19
		c0-0.05,0-0.1,0-0.16c0-0.01,0-0.02,0-0.03V22.4c0-0.03,0-0.07,0-0.11c0-0.1,0.01-0.19,0.01-0.29c0-0.01,0-0.03,0-0.04
		c0.01-0.1,0.01-0.19,0.03-0.29c0.03-0.38,0.09-0.76,0.16-1.12c0.01-0.07,0.03-0.15,0.04-0.22c0.08-0.38,0.18-0.75,0.3-1.1
		c3.77,1.36,7.29,1.4,11.36,0c0.28,0.84,0.46,1.75,0.53,2.7C56.23,22.21,56.24,22.5,56.24,22.79z"/>
	<path class="st3" d="M50,33.6l-3.09-1.15c0.16-0.07,0.31-0.15,0.45-0.24c0.07-0.04,0.13-0.09,0.18-0.14
		c0.01-0.01,0.01-0.01,0.02-0.02c0.05-0.04,0.1-0.09,0.14-0.14c0.01-0.01,0.02-0.02,0.03-0.04c0.04-0.04,0.07-0.08,0.1-0.13
		c0.04-0.05,0.08-0.11,0.1-0.17c0.02-0.03,0.03-0.06,0.04-0.09c0.01-0.03,0.03-0.06,0.04-0.1c0.02-0.05,0.03-0.1,0.04-0.16
		c0.01-0.05,0.02-0.1,0.03-0.16l0.19,0.25L50,33.6z"/>
	<path class="st3" d="M53.09,32.44L50,33.6l1.71-2.28h0l0.18-0.25c0,0.05,0.01,0.11,0.03,0.16c0.12,0.53,0.53,0.93,1.07,1.18
		C53.03,32.42,53.06,32.43,53.09,32.44z"/>
	<path class="st4" d="M52.09,37.29c0,0.3-0.24,0.55-0.55,0.55c-0.3,0-0.55-0.24-0.55-0.55c0-0.3,0.25-0.55,0.55-0.55
		C51.85,36.74,52.09,36.98,52.09,37.29z"/>
	<path class="st4" d="M52.09,43.12c0,0.3-0.24,0.55-0.55,0.55c-0.3,0-0.55-0.25-0.55-0.55c0-0.3,0.25-0.55,0.55-0.55
		C51.85,42.58,52.09,42.82,52.09,43.12z"/>
	<path class="st4" d="M52.09,48.96c0,0.3-0.24,0.55-0.55,0.55c-0.3,0-0.55-0.24-0.55-0.55c0-0.3,0.25-0.55,0.55-0.55
		C51.85,48.41,52.09,48.66,52.09,48.96z"/>
	<path class="st4" d="M52.09,54.8c0,0.3-0.24,0.55-0.55,0.55c-0.3,0-0.55-0.25-0.55-0.55c0-0.3,0.25-0.55,0.55-0.55
		C51.85,54.25,52.09,54.49,52.09,54.8z"/>
	<path class="st4" d="M52.09,60.63c0,0.3-0.24,0.55-0.55,0.55c-0.3,0-0.55-0.25-0.55-0.55c0-0.3,0.25-0.55,0.55-0.55
		C51.85,60.09,52.09,60.33,52.09,60.63z"/>
	<path class="st4" d="M52.09,66.47c0,0.3-0.24,0.55-0.55,0.55c-0.3,0-0.55-0.25-0.55-0.55c0-0.3,0.25-0.55,0.55-0.55
		C51.85,65.92,52.09,66.17,52.09,66.47z"/>
	<path class="st5" d="M56.24,22.98c0,0.1,0,0.19,0,0.29c0,0.09,0,0.17-0.01,0.26c-0.21,3.55-1.96,6.49-4.31,7.54
		c0,0.05,0.01,0.1,0.03,0.15c-0.01,0-0.01,0-0.01,0c-0.01-0.05-0.02-0.1-0.03-0.16l-0.18,0.25h0L50,33.6l-1.72-2.28l-0.19-0.25
		c-2.51-1.12-4.33-4.39-4.33-8.26c4.11,1.19,8.09,1.21,12.47-0.02C56.24,22.85,56.24,22.91,56.24,22.98z"/>
	<g>
		<path class="st6" d="M50.02,43.2c-0.69-0.44-1.66-0.74-2.51-0.71c0.07-0.42,0.17-0.83,0.32-1.25c0.27-0.84,0.47-1.71,0.37-2.57
			c-0.13-1.1-0.74-2.37-0.6-3.48c0.05-0.44,0.26-0.74,0.53-1h0.68c0.31,0,0.6-0.12,0.81-0.31c0.12,0.05,0.25,0.08,0.39,0.08
			c0.03,0,0.06,0,0.1,0c-0.25,0.36-0.55,0.68-0.7,1.1c-0.09,0.24-0.14,0.51-0.14,0.77c-0.01,0.43,0.07,0.87,0.21,1.27
			c0.37,0.84,0.9,1.6,1.1,2.51C50.81,40.7,50.48,42.04,50.02,43.2z"/>
		<path class="st7" d="M54.59,40.64c-0.77,0.49-1.74,0.66-2.67,0.58c0.07-0.23,0.14-0.47,0.16-0.71c0.07-0.84-0.1-1.67-0.64-2.34
			c-0.46-0.57-1.72-1.41-2.18-2.34c0.01-0.27,0.05-0.53,0.14-0.77c0.15-0.42,0.45-0.75,0.7-1.1c0.1-0.01,0.2-0.04,0.3-0.08
			c0.21,0.19,0.5,0.31,0.81,0.31h0.02c-0.58,1.44,0.57,2.11,1.59,3.04c0.54,0.5,0.97,1.07,1.24,1.74
			C54.24,39.42,54.45,40.03,54.59,40.64z"/>
		<path class="st2" d="M55.92,31.85v2.4H51.2c-0.31,0-0.6-0.12-0.81-0.31c-0.05-0.05-0.1-0.1-0.15-0.16
			C50.1,33.58,50,33.33,50,33.05c0-0.35,0.15-0.67,0.39-0.89c0.21-0.19,0.5-0.31,0.81-0.31H55.92z"/>
		<path class="st2" d="M50,33.05c0,0.35-0.15,0.67-0.39,0.89c-0.21,0.19-0.5,0.31-0.81,0.31h-4.72v-2.4h4.72
			c0.31,0,0.6,0.12,0.81,0.31C49.85,32.39,50,32.7,50,33.05z"/>
		<path class="st8" d="M50.97,33.05c0,0.39-0.24,0.74-0.58,0.89c-0.09,0.04-0.19,0.07-0.3,0.08c-0.03,0-0.06,0-0.1,0
			c-0.14,0-0.27-0.03-0.39-0.08c-0.34-0.15-0.58-0.49-0.58-0.89c0-0.39,0.24-0.74,0.58-0.89c0.12-0.05,0.25-0.08,0.39-0.08
			c0.14,0,0.27,0.03,0.39,0.08C50.74,32.32,50.97,32.66,50.97,33.05z"/>
	</g>
	<path class="st1" d="M48.1,31.07c0,0.05-0.01,0.11-0.03,0.16c-0.01,0.05-0.02,0.11-0.04,0.16c-0.01,0.03-0.02,0.06-0.04,0.1
		c-0.01,0.03-0.02,0.06-0.04,0.09c-0.02,0.06-0.06,0.12-0.1,0.17c-0.03,0.05-0.06,0.09-0.1,0.13c-0.01,0.01-0.02,0.03-0.03,0.04
		c-0.04,0.05-0.09,0.09-0.14,0.14c0,0-0.01,0.01-0.02,0.02c-0.06,0.05-0.12,0.09-0.18,0.14c-0.14,0.09-0.29,0.17-0.45,0.24
		c-1.17,0.49-2.91,0.33-3.88-0.46c-1.16-1.08-2.2-2.79-2.56-4.22c-0.4-1.57-0.37-3.31,0.12-4.82v0c0.04-0.11,0.07-0.22,0.12-0.33
		c0.04-0.11,0.08-0.22,0.13-0.32c0.04-0.1,0.09-0.2,0.13-0.29c0.06-0.12,0.12-0.24,0.18-0.35c0.05-0.09,0.11-0.17,0.16-0.26
		c0.01-0.01,0.02-0.03,0.03-0.04c0.05-0.09,0.11-0.17,0.18-0.25c0.06-0.09,0.14-0.18,0.21-0.26c0.07-0.09,0.15-0.17,0.22-0.25
		c0.08-0.08,0.16-0.16,0.24-0.23c0.1-0.09,0.2-0.18,0.31-0.26c0.15-0.12,0.31-0.22,0.48-0.33c0.06-0.03,0.12-0.07,0.18-0.1
		c0.06-0.03,0.12-0.06,0.18-0.09c0.16-0.08,0.33-0.15,0.5-0.2c0.07-0.03,0.15-0.05,0.22-0.07c0.08-0.02,0.17-0.05,0.26-0.07
		c-0.12,0.35-0.21,0.72-0.3,1.1c-0.02,0.07-0.03,0.15-0.04,0.22c-0.07,0.36-0.13,0.74-0.16,1.12c-0.01,0.09-0.02,0.19-0.03,0.29
		c0,0.01,0,0.03,0,0.04c-0.01,0.09-0.01,0.19-0.01,0.29c0,0.03,0,0.07,0,0.11v0.03c0,0.01,0,0.02,0,0.03c0,0.05,0,0.1,0,0.16
		c0,0.06,0,0.13,0,0.19C43.76,26.68,45.58,29.95,48.1,31.07z"/>
	<path class="st1" d="M59.53,27.76c-0.35,1.43-1.4,3.13-2.56,4.22c-0.99,0.82-2.8,0.95-3.96,0.42c-0.54-0.25-0.95-0.64-1.06-1.18
		c-0.01-0.05-0.02-0.1-0.03-0.15c2.36-1.05,4.1-3.99,4.31-7.54c0-0.09,0.01-0.17,0.01-0.26c0-0.15,0.01-0.3,0.01-0.46v-0.02
		c0-0.29-0.01-0.58-0.03-0.87c-0.07-0.95-0.25-1.86-0.53-2.7c1.92,0.44,3.14,1.9,3.72,3.69C59.9,24.43,59.93,26.19,59.53,27.76z"/>
	<path class="st9" d="M44.09,32.53v1.73h3.98c-0.24,0.25-0.43,0.53-0.47,0.94c-0.14,1.1,0.47,2.37,0.6,3.48
		c0.1,0.87-0.1,1.74-0.36,2.57c-0.15,0.42-0.25,0.83-0.32,1.24c0.84-0.02,1.8,0.26,2.49,0.7V72.9h-0.02c0,1.33-1.02,2.42-2.32,2.51
		c-0.19-0.01-0.38-0.02-0.58-0.02c-4.06-0.21-9.59-1.48-13.11-4.05c1.86-7.09,4.05-17.57,0.87-25.46c-0.72,3.42-0.97,7.78-1.32,9.28
		c-0.75,2.76-1.96,5.33-2.25,8.11c-0.48,4.43-1.88,11.14-4.8,11.6l-0.81,3.51l-7.57-1.74l0.88-3.81c-0.48-0.62-0.72-1.49-0.6-2.73
		c0.3-3.73,3.2-13.67,4.11-17.48c1.08-4.53,2.07-7.17,3.37-11.07c0.56-1.7,1.06-3.57,1.5-5.36c0.53-1.7,2.04-6.04,3.02-8.19
		c0,0,0-0.01,0.01-0.01c0.22-0.66,0.59-1.24,1.07-1.72c0.39-0.39,0.85-0.71,1.36-0.93l1.01-0.31l6.78-2.08v-0.01
		c0.04-0.11,0.07-0.22,0.12-0.33c0.04-0.11,0.08-0.22,0.13-0.32c0.04-0.1,0.09-0.2,0.13-0.29c0.06-0.12,0.12-0.24,0.19-0.35
		c0.05-0.09,0.11-0.18,0.16-0.26c0.01-0.01,0.02-0.03,0.03-0.04c0.05-0.09,0.11-0.17,0.18-0.25c0.06-0.09,0.14-0.18,0.21-0.26
		c0.07-0.09,0.15-0.17,0.22-0.25c0.08-0.08,0.16-0.16,0.24-0.23c0.1-0.09,0.2-0.18,0.31-0.26c0.15-0.12,0.31-0.22,0.48-0.33
		c0.06-0.03,0.12-0.07,0.19-0.1c0.06-0.03,0.12-0.06,0.18-0.09c0.16-0.08,0.33-0.15,0.5-0.2c0.07-0.03,0.15-0.05,0.22-0.07
		c0.08-0.02,0.17-0.05,0.26-0.07c1.92,0.69,3.78,1.04,5.68,1.04v11.82c-0.14,0-0.27,0.03-0.39,0.08c-0.21-0.19-0.5-0.31-0.81-0.31
		h-1.05c0,0.01-0.01,0.01-0.01,0.02c-0.01,0.01-0.02,0.03-0.03,0.04c-0.04,0.05-0.09,0.09-0.14,0.14c-0.01,0-0.01,0.01-0.02,0.02
		c-0.06,0.05-0.12,0.09-0.19,0.14c-0.14,0.09-0.29,0.17-0.45,0.24C46.1,32.78,45,32.81,44.09,32.53z"/>
</g>
</svg>
