<?xml version="1.0" encoding="utf-8"?>
<!-- Generator: Adobe Illustrator 24.3.0, SVG Export Plug-In . SVG Version: 6.00 Build 0)  -->
<svg version="1.1" id="레이어_1" xmlns="http://www.w3.org/2000/svg" xmlns:xlink="http://www.w3.org/1999/xlink" x="0px"
	 y="0px" viewBox="0 0 100 100" style="enable-background:new 0 0 100 100;" xml:space="preserve">
<style type="text/css">
	.st0{fill:#012D51;}
	.st1{fill:#2491EA;}
	.st2{fill:#065291;}
	.st3{opacity:0.46;fill:#4D8EF7;}
</style>
<rect x="27.56" y="20.37" class="st0" width="44.95" height="7.58"/>
<path class="st1" d="M78.98,79.78l0.61,1.23c-1.22,0.61-3.06,0.41-4.49,0.82c-3.27,1.02-2.66,2.66-6.33,2.45
	c-3.27-0.41-4.09,0-6.95,0.61c-2.86,1.02-4.5,0.21-7.36-0.61c-0.61,0-1.23-0.82-1.84-0.82c-1.23,0-0.82,1.23-1.64,1.23
	c-1.02,0.2-2.45,0.62-3.88,0.41c-1.63-0.41-2.86-1.43-4.5-1.64c-2.04-0.41-2.45,0.61-3.27,0.82c-4.09,0.61-7.36-0.41-10.83-2.25
	c-3.47-1.84-3.68-0.62-7.36-0.62c-2.98,0-4.31-2.26-6.44-3.29l12.84-50.17h44.95l12.69,49.59C83.58,78.93,80.62,78.31,78.98,79.78z"
	/>
<path class="st2" d="M34.89,51.47c-0.65,3.26-2.48,6.4-2.74,9.67c-0.13,2.22,1.31,3.92,1.57,6.14c0.27,2.62-1.04,5.36-1.96,7.71
	c-1.29,3.4-0.3,6.49,1.88,9.05c-1.72-0.42-3.36-1.11-5.05-2.01c-2.11-1.12-3.01-1.11-4.22-0.93c0.77-1.9,1.35-3.82,1.64-5.72
	c0.26-2.22-0.13-4.44,0.39-6.66c0.65-3.14,2.35-6.01,3.27-9.01c0.78-2.62,1.18-5.36,1.69-7.97c0.27-1.57,2.23-10.45,3.92-6.53
	C35.94,46.63,35.15,50.03,34.89,51.47z"/>
<path class="st2" d="M23.65,48.73c-0.13,3.53-1.57,7.45-2.35,10.98c-0.78,3.53-1.7,7.06-2.61,10.58c-0.63,2.9-0.16,6.78-2.38,8.81
	c-0.49-0.37-0.97-0.71-1.52-0.97l8.54-33.36C23.5,46.1,23.7,47.43,23.65,48.73z"/>
<path class="st2" d="M47.22,85.09h-0.04c-1.63-0.41-2.86-1.42-4.49-1.63c-1.89-0.38-2.38,0.46-3.09,0.75
	c0.63-1.57,1.62-3.03,2.09-4.78c0.92-3.53,0.39-7.18,0.39-10.71c0-3.14,0.65-5.75,1.31-8.89c0.65-2.87,0.13-6.4,1.96-9.01
	c1.69,1.96,1.57,6.27,1.18,8.76c-0.66,3.79-1.96,6.41-0.78,10.33c1.04,3.26,1.44,6.14,1.44,9.53
	C47.17,80.61,46.84,83.21,47.22,85.09z"/>
<path class="st2" d="M58.74,85.34c-1.31-0.12-2.56-0.6-4.21-1.07c-0.61,0-1.22-0.81-1.84-0.81c-0.03,0-0.05,0-0.08,0.01
	c0.01-0.87,0.36-1.56,0.7-2.59c1.05-3.14,1.05-5.75,1.18-9.02c0.13-2.48-0.52-5.36-0.39-7.71c0.13-1.83,1.57-3.4,1.57-5.1
	c0-0.65-0.91-5.22,0.78-2.61c0.78,1.17,0.27,4.05,0.27,5.49c0,3.79,0.65,7.31,1.04,11.11C58.38,77.85,56.57,81.79,58.74,85.34z"/>
<path class="st2" d="M69.86,84.27c-0.3,0.02-0.64,0.02-1.02,0c-1.83-0.23-2.89-0.2-3.98-0.02c-1.36-1.86-1.53-4.49-1.22-6.65
	c0.65-5.62,1.57-10.45,0.13-16.07c-1.05-3.92-3.01-7.19-3.14-11.37c0-3.4,0-6.92-0.13-10.32c3.14,1.7,2.61,7.58,3.4,10.58
	c1.18,4.31,3.27,8.23,4.31,12.42c1.05,4.18,0.66,7.58,0,11.76C67.61,78.26,68.18,81.43,69.86,84.27z"/>
<path class="st2" d="M85.28,77.55c-1.25,1.07-3.3,0.94-4.92,1.51c0-0.89-0.45-1.83-1.18-2.63c-1.96-2.09-3.53-3.53-4.05-6.53
	c-0.66-3.14,0-6.27-0.27-9.41c-0.39-3.66-1.43-7.58-2.74-10.98c-0.39-1.31-1.96-3.79-1.43-5.23c0.78-1.96,1.83,1.31,2.35,2.48
	c1.83,3.79,2.74,7.97,3.66,12.15c0.55,2.64,3.24,10.77,6.42,10.19L85.28,77.55z"/>
<path class="st3" d="M50.04,20.37v64.52c-0.88,0.19-1.91,0.35-2.93,0.2c-1.63-0.41-2.85-1.42-4.49-1.63
	c-2.05-0.41-2.45,0.61-3.27,0.81c-4.08,0.61-7.35-0.41-10.83-2.24c-3.47-1.84-3.68-0.62-7.35-0.62c-2.99,0-4.31-2.26-6.44-3.29
	l12.84-50.17v-7.58H50.04z"/>
</svg>
