<?xml version="1.0" encoding="utf-8"?>
<!-- Generator: Adobe Illustrator 24.3.0, SVG Export Plug-In . SVG Version: 6.00 Build 0)  -->
<svg version="1.1" id="레이어_1" xmlns="http://www.w3.org/2000/svg" xmlns:xlink="http://www.w3.org/1999/xlink" x="0px"
	 y="0px" viewBox="0 0 100 100" style="enable-background:new 0 0 100 100;" xml:space="preserve">
<style type="text/css">
	.st0{fill:#BD373C;}
	.st1{fill:#DFBDA9;}
	.st2{fill:#FECA50;}
	.st3{fill:#CF393C;}
	.st4{fill:#DB3A3C;}
	.st5{fill:#6A1F22;}
</style>
<g>
	<path class="st0" d="M90.57,84.99H16.53c-3.85-2.93-4.4-19.55-1.84-25.66c1.74-4.14,3.67-8.06,3.91-12.71
		c0.09-1.48-0.05-3.53-0.17-5.61c-0.03-0.51-0.06-1.01-0.08-1.5v-3.98c0.06-0.69,0.16-1.3,0.32-1.77c0.07-0.21,0.15-0.39,0.24-0.55
		c0.13-0.17,0.27-0.32,0.43-0.46c0.39-0.34,0.87-0.58,1.39-0.68c0.05-0.01,0.1-0.02,0.14-0.02c0.14-0.02,0.27-0.03,0.41-0.03H85.8
		c0.74,0,1.42,0.28,1.94,0.73c0.16,0.14,0.3,0.29,0.43,0.46c0.31,0.51,0.49,1.32,0.57,2.32v3.98c-0.02,0.5-0.05,1-0.08,1.5
		c-0.12,2.08-0.25,4.14-0.17,5.61c0.24,4.64,2.17,8.56,3.91,12.71C94.96,65.44,94.42,82.05,90.57,84.99z"/>
	<path class="st1" d="M87.37,32.47L34.86,84.99H16.53c-3.85-2.93-4.4-19.55-1.84-25.66c1.74-4.14,3.67-8.06,3.91-12.71
		c0.09-1.48-0.05-3.53-0.17-5.61c-0.03-0.51-0.06-1.01-0.08-1.5v-3.98c0.06-0.69,0.16-1.3,0.32-1.77c0.07-0.21,0.15-0.39,0.24-0.55
		c0.13-0.17,0.27-0.32,0.43-0.46c0.39-0.34,0.87-0.58,1.39-0.68c0.05-0.01,0.1-0.02,0.14-0.02c0.14-0.02,0.27-0.03,0.41-0.03H85.8
		C86.38,32.02,86.92,32.18,87.37,32.47z"/>
	<g>
		<path class="st2" d="M39.9,42.38c-2.38,0-4.32-1.94-4.32-4.32c0-2.38,1.94-4.32,4.32-4.32c2.38,0,4.32,1.94,4.32,4.32
			C44.22,40.45,42.28,42.38,39.9,42.38z M39.9,35.7c-1.3,0-2.36,1.06-2.36,2.36s1.06,2.36,2.36,2.36c1.3,0,2.36-1.06,2.36-2.36
			S41.21,35.7,39.9,35.7z"/>
	</g>
	<path class="st3" d="M43.69,49.27c0,2.09-1.7,3.79-3.79,3.79l0,0c-2.09,0-3.79-1.69-3.79-3.79v-7c0-2.09,1.7-3.79,3.79-3.79l0,0
		c2.09,0,3.79,1.7,3.79,3.79V49.27z"/>
	<g>
		<path class="st2" d="M66.95,42.38c-2.38,0-4.32-1.94-4.32-4.32c0-2.38,1.94-4.32,4.32-4.32c2.38,0,4.32,1.94,4.32,4.32
			C71.26,40.45,69.33,42.38,66.95,42.38z M66.95,35.7c-1.3,0-2.36,1.06-2.36,2.36s1.06,2.36,2.36,2.36c1.3,0,2.36-1.06,2.36-2.36
			S68.25,35.7,66.95,35.7z"/>
	</g>
	<path class="st3" d="M70.73,49.27c0,2.09-1.7,3.79-3.79,3.79l0,0c-2.09,0-3.79-1.69-3.79-3.79v-7c0-2.09,1.7-3.79,3.79-3.79l0,0
		c2.09,0,3.79,1.7,3.79,3.79V49.27z"/>
	<path class="st4" d="M68.39,23.73v13.69h-2.93V23.73c0-6.65-5.41-12.05-12.05-12.05c-6.65,0-12.05,5.41-12.05,12.05v13.69h-2.93
		V23.73c0-8.28,6.71-14.99,14.98-14.99c4.14,0,7.89,1.68,10.6,4.39C66.71,15.84,68.39,19.59,68.39,23.73z"/>
	<path class="st5" d="M20.74,32.06c-0.52,0.11-1,0.34-1.39,0.68c-0.15,0.14-0.3,0.29-0.43,0.46c-0.1,0.16-0.18,0.34-0.24,0.55
		c-0.17,0.47-0.26,1.08-0.32,1.77v3.98c0.02,0.5,0.05,1,0.08,1.5c0.12,2.08,0.25,4.14,0.17,5.61c-0.24,4.64-2.17,8.56-3.91,12.71
		c-2.56,6.11-2.01,22.73,1.84,25.66c-4.6,0-9.09-11.65-5.83-22.16c1.25-4.05,2.63-6.51,4.26-10.26c1.47-3.75,1.74-8.07,1.74-12.13
		C16.71,38.28,16.58,32.6,20.74,32.06z"/>
</g>
</svg>
