<?xml version="1.0" encoding="utf-8"?>
<!-- Generator: Adobe Illustrator 24.3.0, SVG Export Plug-In . SVG Version: 6.00 Build 0)  -->
<svg version="1.1" id="레이어_1" xmlns="http://www.w3.org/2000/svg" xmlns:xlink="http://www.w3.org/1999/xlink" x="0px"
	 y="0px" viewBox="0 0 100 100" style="enable-background:new 0 0 100 100;" xml:space="preserve">
<style type="text/css">
	.st0{fill:#CEBA90;}
	.st1{fill:#C6946D;}
	.st2{fill:#D9B4A1;}
	.st3{fill:#755840;}
	.st4{fill:#615A66;}
	.st5{opacity:0.25;}
	.st6{fill:#F2F2F2;}
	.st7{opacity:0.4;}
	.st8{fill:#515355;}
	.st9{fill:#DEC99B;}
</style>
<g>
	<g>
		<path class="st0" d="M15.49,38.81c0.06,0.31,0.14,0.62,0.24,0.9c0.03,0.09,0.07,0.19,0.1,0.29c1.15,2.87,4.18,4.33,8.17,6.98
			c4.34,2.89,9.81,7.18,15.23,16.24c0.54,0.93,1.21,1.96,1.98,2.97c0,0.01,0.01,0.01,0.01,0.01c0.24,0.31,0.48,0.63,0.75,0.94
			c0.01,0.01,0.02,0.03,0.03,0.03c0.37,0.46,0.77,0.9,1.18,1.32c0.02,0.03,0.04,0.05,0.07,0.07c1.01,1.02,2.11,1.89,3.24,2.45
			c0.05,0.03,0.11,0.05,0.17,0.08c0.62,0.29,1.26,0.48,1.9,0.54c8.4,0.87,25.3-0.66,26.51-2.06c0.03-0.03,0.05-0.07,0.06-0.11
			c0.03-0.09,0.05-0.18,0.08-0.29c0.02-0.07,0.03-0.14,0.04-0.21c0.01-0.03,0.02-0.06,0.02-0.1c0.01-0.05,0.02-0.11,0.03-0.16
			c0.02-0.1,0.04-0.2,0.05-0.3c0.01-0.09,0.02-0.18,0.03-0.28c0.22-2.99-1.44-8.19-12.06-9.72c-6.35,6.56-17.51-0.76-20.57-8.1
			c-0.12-0.28-0.3-0.62-0.52-1.03c-0.05-0.08-0.1-0.18-0.15-0.26c-2.36-4.07-9.08-13.1-10.82-15.34c-1.75-2.19-5.47-6.06-8.09-7.37
			C19.35,27.87,14.58,34.18,15.49,38.81z"/>
		<path class="st1" d="M15.83,40c2.23,6.26,3.43,26.37,3.43,32.51h3.28c0-6.37,0.44-21.3,1.46-25.53
			C20.02,44.32,16.98,42.86,15.83,40z"/>
		<path class="st2" d="M42.21,49.27c0.22,0.41,0.4,0.76,0.52,1.03c3.06,7.33,14.23,14.66,20.57,8.09
			C62.22,57.77,50.27,63.14,42.21,49.27z"/>
		<rect x="19.19" y="69.13" class="st3" width="3.35" height="3.38"/>
		<path class="st4" d="M42.36,67.59c0.22,0.28,0.55,0.58,0.82,0.89c0.02,0.03,0.04,0.05,0.07,0.07c1.01,1.02,2.11,1.89,3.24,2.45
			c0.05,0.03,0.11,0.05,0.17,0.08c0.56,0.23,1.2,0.42,1.9,0.54c8.4,0.87,25.3-0.66,26.51-2.06c0.03-0.03,0.05-0.07,0.06-0.11
			c0.03-0.09,0.05-0.18,0.08-0.29c0.02-0.07,0.03-0.14,0.04-0.21c0.01-0.03,0.02-0.06,0.02-0.1c0.01-0.05,0.02-0.11,0.03-0.16
			c0.02-0.1,0.04-0.2,0.05-0.3c0.01-0.09,0.02-0.18,0.03-0.28c-0.71,1.15-7.79,2.39-15.31,2.79C52.54,71.31,44.59,70.89,42.36,67.59
			z"/>
		<g class="st5">
			<path class="st6" d="M18.4,48.32c0.26,1.95,0.47,4.1,0.65,6.21l3,3c0.07-1.8,0.16-3.64,0.27-5.29L18.4,48.32z"/>
		</g>
	</g>
	<g class="st7">
		<path class="st8" d="M24.84,39.28c0.21,3.19,0.84,6.11,1.25,9.15c3.94,2.88,8.55,7.13,13.12,14.78c0.54,0.93,1.21,1.96,1.98,2.97
			c0,0.01,0.01,0.01,0.01,0.01c0.24,0.32,0.49,0.63,0.75,0.94c0.01,0.01,0.01,0.03,0.03,0.03c0.12,0.14,0.23,0.29,0.36,0.43
			c0.22,0.28,0.55,0.58,0.82,0.89c0.01,0.01,0.01,0.01,0.02,0.02c0.01,0.02,0.03,0.03,0.05,0.05c1.01,1.02,2.11,1.89,3.24,2.45
			c0.05,0.03,0.11,0.05,0.16,0.08c0.56,0.23,1.2,0.42,1.91,0.54c8.4,0.87,25.3-0.66,26.51-2.06c0.03-0.03,0.05-0.07,0.06-0.11
			c0.03-0.09,0.05-0.18,0.08-0.29c0.02-0.07,0.03-0.14,0.05-0.21c0.01-0.03,0.02-0.06,0.02-0.1c0.01-0.05,0.02-0.11,0.03-0.16
			c0.02-0.1,0.04-0.2,0.05-0.3c0.01-0.09,0.02-0.19,0.03-0.28c0.22-2.99-1.44-8.19-12.06-9.72c-1.09-0.62-13.04,4.75-21.09-9.13
			c-0.05-0.09-0.1-0.18-0.15-0.26c-2.36-4.07-9.07-13.1-10.82-15.34c-0.96-1.2-2.51-2.91-4.14-4.42
			C25.14,31.9,24.58,36.56,24.84,39.28z"/>
	</g>
	<g>
		<path class="st9" d="M27.36,41.27c0.06,0.31,0.14,0.62,0.24,0.9c0.03,0.09,0.07,0.19,0.1,0.29c1.15,2.87,4.18,4.33,8.17,6.98
			c4.34,2.89,9.81,7.18,15.22,16.24c0.54,0.93,1.21,1.96,1.98,2.97c0,0.01,0.01,0.01,0.01,0.01c0.24,0.32,0.49,0.63,0.75,0.94
			c0.01,0.01,0.01,0.03,0.03,0.03c0.37,0.46,0.77,0.9,1.18,1.32c0.02,0.03,0.04,0.05,0.06,0.06c1.01,1.02,2.11,1.89,3.25,2.45
			c0.05,0.03,0.1,0.05,0.16,0.08c0.62,0.29,1.26,0.48,1.9,0.54c8.4,0.87,25.3-0.66,26.51-2.06c0.03-0.03,0.05-0.07,0.06-0.11
			c0.03-0.09,0.05-0.18,0.08-0.29c0.02-0.06,0.03-0.14,0.05-0.21c0.01-0.04,0.02-0.07,0.02-0.1c0.01-0.05,0.02-0.11,0.03-0.16
			c0.02-0.1,0.04-0.2,0.05-0.29c0.01-0.09,0.02-0.19,0.03-0.28c0.22-2.99-1.44-8.19-12.06-9.72c-6.35,6.56-17.51-0.76-20.58-8.09
			c-0.12-0.28-0.3-0.62-0.52-1.03c-0.05-0.09-0.1-0.18-0.15-0.26c-2.36-4.07-9.07-13.1-10.82-15.34c-1.74-2.19-5.47-6.06-8.1-7.37
			C31.22,30.33,26.45,36.65,27.36,41.27z"/>
		<path class="st1" d="M27.71,42.46c2.23,6.26,3.43,26.37,3.43,32.51h3.28c0-6.37,0.44-21.31,1.47-25.53
			C31.89,46.78,28.86,45.33,27.71,42.46z"/>
		<path class="st1" d="M54.09,51.73c0.22,0.41,0.4,0.75,0.52,1.03c3.07,7.33,14.23,14.66,20.58,8.1
			C74.09,60.23,62.14,65.61,54.09,51.73z"/>
		<rect x="31.06" y="71.59" class="st3" width="3.35" height="3.38"/>
		<path class="st3" d="M54.23,70.05c0.22,0.28,0.55,0.58,0.82,0.89c0.02,0.03,0.04,0.05,0.06,0.06c1.01,1.02,2.11,1.89,3.25,2.45
			c0.05,0.03,0.1,0.05,0.16,0.08c0.56,0.23,1.2,0.42,1.9,0.54c8.4,0.87,25.3-0.66,26.51-2.06c0.03-0.03,0.05-0.07,0.06-0.11
			c0.03-0.09,0.05-0.18,0.08-0.29c0.02-0.06,0.03-0.14,0.05-0.21c0.01-0.04,0.02-0.07,0.02-0.1c0.01-0.05,0.02-0.11,0.03-0.16
			c0.02-0.1,0.04-0.2,0.05-0.29c0.01-0.09,0.02-0.19,0.03-0.28c-0.71,1.15-7.79,2.39-15.31,2.79
			C64.41,73.77,56.46,73.35,54.23,70.05z"/>
		<g class="st5">
			<path class="st6" d="M30.27,50.78c0.26,1.95,0.47,4.1,0.65,6.21l3,3c0.07-1.8,0.16-3.64,0.27-5.29L30.27,50.78z"/>
		</g>
	</g>
</g>
</svg>
